<svg height="30px" width="30px" version="1.1"
    fill="#fff"
    xmlns="http://www.w3.org/2000/svg" xmlns:xlink="http://www.w3.org/1999/xlink"
    viewBox="0 0 456.14 456.14" xml:space="preserve">
    <!--the
    fill attribute has to be set to white in order for open layers to be able to change the color
    from the outside -->
    <g >
        <path d="M244.653,290.456c-1.297-22.555-5.791-44.4-12.789-60.745c-3.26-7.615-12.076-11.145-19.693-7.885
            l-29.509,12.634l-13.451-31.416c-3.26-7.615-12.076-11.145-19.693-7.885l-2.983,1.277L93.243,71.965
            c6.96-5.689,12.416-13.067,15.85-21.644c5.349-13.357,5.175-27.998-0.488-41.226c-1.566-3.656-4.521-6.542-8.214-8.021
            c-3.692-1.48-7.822-1.43-11.479,0.136l-71.46,30.596C9.836,35.067,6.306,43.884,9.567,51.5
            c5.663,13.227,16.138,23.457,29.496,28.806c6.478,2.594,13.257,3.889,20.032,3.889c2.194,0,4.386-0.153,6.569-0.424l53.294,124.476
            l-2.983,1.277c-3.657,1.565-6.542,4.52-8.021,8.213c-1.479,3.693-1.43,7.823,0.136,11.48l13.451,31.416l-29.509,12.634
            c-3.657,1.565-6.543,4.521-8.021,8.213c-1.479,3.693-1.43,7.823,0.136,11.48c9.793,22.873,30.765,49.637,54.731,69.846
            c0.968,0.816,1.992,1.661,3.056,2.522c15.504-17.578,37.108-29.655,61.466-32.88C213.373,314.945,227.681,300.56,244.653,290.456z
            M50.214,52.455c-0.788-0.315-1.553-0.67-2.293-1.06l34.139-14.616c-0.229,0.805-0.501,1.603-0.816,2.391
            c-2.37,5.918-6.902,10.559-12.763,13.068C62.62,54.747,56.132,54.824,50.214,52.455z"/>
        <path d="M447.289,439.372c-7.355-25.952-31.054-44.212-57.933-44.833c0.087-1.576,0.131-3.153,0.131-4.733
            c0-47.22-38.416-85.636-85.635-85.636c-37.078,0-69.275,23.599-80.966,57.707c-2.114-0.194-4.24-0.293-6.368-0.293
            c-38.292,0-69.445,31.152-69.445,69.445c0,4.957,0.53,9.912,1.575,14.729c1.314,6.06,6.676,10.382,12.875,10.382h273.089
            c4.129,0,8.02-1.936,10.51-5.23C447.613,447.615,448.415,443.345,447.289,439.372z"/>
    </g>
</svg>